<?xml version="1.0" encoding="iso-8859-1"?>
<!-- Generator: Adobe Illustrator 19.0.0, SVG Export Plug-In . SVG Version: 6.00 Build 0)  -->
<svg version="1.1" id="Capa_1" xmlns="http://www.w3.org/2000/svg" xmlns:xlink="http://www.w3.org/1999/xlink" x="0px" y="0px"
	 viewBox="0 0 512 512" style="enable-background:new 0 0 512 512;" xml:space="preserve" fill="white">
<g>
	<g>
		<path d="M442.854,137.973c-32.646,0-59.206,26.56-59.206,59.206c0,9.285,4.337,18.38,15,18.38c8.284,0,15-6.716,15-15v-3.38
			c0-16.104,13.102-29.206,29.206-29.206c21.585,0,39.146,17.561,39.146,39.147s-17.562,39.147-39.146,39.147H112.27
			c-8.284,0-15,6.716-15,15s6.716,15,15,15h330.584c38.128,0,69.146-31.019,69.146-69.147S480.981,137.973,442.854,137.973z"/>
	</g>
</g>
<g>
	<g>
		<path d="M317.247,127.345c-24.437,0-44.318,19.881-44.318,44.318c0,8.841,5.164,17.242,15,17.242c8.284,0,15-6.716,15-15v-2.242
			c0-7.895,6.423-14.318,14.318-14.318c11.531,0,20.912,9.381,20.912,20.912s-9.381,20.912-20.912,20.912h-118.94h-53.214
			c-8.284,0-15,6.716-15,15s6.716,15,15,15h118.586h53.568c16.411,0,31.025-7.814,40.342-19.908
			c6.62-8.593,10.57-19.343,10.57-31.004C368.159,150.185,345.32,127.345,317.247,127.345z"/>
	</g>
</g>
<g>
	<g>
		<path d="M356.107,292.355H206.78c-8.284,0-15,6.716-15,15s6.716,15,15,15h149.327c8.905,0,16.15,7.245,16.15,16.15
			c0,8.905-7.245,16.15-16.15,16.15c-5.752,0-10.431-4.679-10.431-10.431c0-8.284-6.716-15-15-15
			c-6.797,0-12.531,4.524-14.373,10.723c-0.403,1.356-0.627,2.79-0.627,4.277c0,22.294,18.137,40.431,40.431,40.431
			c25.447,0,46.15-20.703,46.15-46.15C402.257,313.058,381.555,292.355,356.107,292.355z"/>
	</g>
</g>
<g>
	<g>
		<path d="M101.235,199.17H60.899c-8.284,0-15,6.716-15,15s6.716,15,15,15h40.336c8.284,0,15-6.716,15-15
			S109.519,199.17,101.235,199.17z"/>
	</g>
</g>
<g>
	<g>
		<path d="M74.08,246.267H15c-8.284,0-15,6.716-15,15s6.716,15,15,15h59.08c8.284,0,15-6.716,15-15S82.364,246.267,74.08,246.267z"
			/>
	</g>
</g>
<g>
	<g>
		<path d="M163.826,292.355h-62.591c-8.284,0-15,6.716-15,15s6.716,15,15,15h62.591c8.284,0,15-6.716,15-15
			S172.11,292.355,163.826,292.355z"/>
	</g>
</g>
<g>
</g>
<g>
</g>
<g>
</g>
<g>
</g>
<g>
</g>
<g>
</g>
<g>
</g>
<g>
</g>
<g>
</g>
<g>
</g>
<g>
</g>
<g>
</g>
<g>
</g>
<g>
</g>
<g>
</g>
</svg>
